<svg width="46" height="45" viewBox="0 0 46 45" fill="none" xmlns="http://www.w3.org/2000/svg">
<g clip-path="url(#clip0_21_5619)">
<path fill-rule="evenodd" clip-rule="evenodd" d="M0.930908 8.52661C0.930908 4.10833 4.51264 0.526611 8.93091 0.526611H36.8139C41.2322 0.526611 44.8139 4.10834 44.8139 8.52662V36.4096C44.8139 40.8279 41.2322 44.4096 36.8139 44.4096H8.93091C4.51263 44.4096 0.930908 40.8279 0.930908 36.4096V8.52661ZM12.4693 37.1984C12.4693 37.1984 12.4694 37.1984 12.4694 37.1984L12.4694 37.1984C13.4415 39.2601 15.3564 40.9685 18.6552 40.9685C22.308 40.9685 24.8117 39.0244 24.8117 34.7531V22.7351C24.8117 21.5963 23.8886 20.6731 22.7498 20.6731C21.611 20.6731 20.6879 21.5963 20.6879 22.7351V34.6948C20.6879 36.7566 19.8335 37.2867 18.4785 37.2867C16.5077 37.2867 14.4327 36.0102 12.7467 37.0306L12.4694 37.1984L12.4694 37.1984C12.4694 37.1983 12.4693 37.1983 12.4693 37.1984ZM30.8613 35.4792C30.5908 35.1219 30.1001 34.9915 29.7123 35.2161L27.0518 36.7565C27.0518 36.7565 27.0518 36.7565 27.0518 36.7565C27.0518 36.7565 27.0518 36.7565 27.0518 36.7565C28.2594 39.1427 30.7338 40.9689 34.5632 40.9689C38.4809 40.9689 41.3971 38.9365 41.3971 35.2247C41.3971 31.7784 39.4234 30.2468 35.918 28.7444L34.8871 28.3026C33.1198 27.5367 32.3539 27.0358 32.3539 25.7985C32.3539 24.7972 33.1198 24.0313 34.3276 24.0313C34.8306 24.0313 35.2584 24.1226 35.6386 24.3257C36.6036 24.8414 37.7564 25.299 38.6771 24.7078C39.5252 24.1631 39.8273 23.0189 39.1371 22.2843C37.9022 20.9699 36.3296 20.4374 34.3275 20.4374C30.6453 20.4374 28.2887 22.794 28.2887 25.887C28.2887 29.2452 30.2624 30.8358 33.2378 32.1022L34.2685 32.5444C36.1538 33.3689 37.273 33.8697 37.273 35.2837C37.273 36.462 36.1834 37.3163 34.4747 37.3163C32.7707 37.3163 31.6878 36.5709 30.8613 35.4792Z" fill="#7B4AE2" fill-opacity="0.5"/>
</g>
<defs>
<clipPath id="clip0_21_5619">
<rect x="0.404297" width="44.9362" height="44.9362" rx="8" fill="white"/>
</clipPath>
</defs>
</svg>
