<svg width="46" height="45" viewBox="0 0 46 45" fill="none" xmlns="http://www.w3.org/2000/svg">
<path d="M21.2093 0.0333327C21.1127 0.0421166 20.8052 0.0728602 20.5285 0.0948199C14.1461 0.670164 8.16774 4.11345 4.38133 9.40574C2.27289 12.3483 0.924368 15.6862 0.414828 19.2217C0.234731 20.4559 0.212769 20.8204 0.212769 22.4937C0.212769 24.1671 0.234731 24.5316 0.414828 25.7657C1.63597 34.2026 7.64063 41.2912 15.7845 43.9176C17.2428 44.3876 18.7802 44.7082 20.5285 44.9014C21.2093 44.9761 24.1524 44.9761 24.8332 44.9014C27.8509 44.5676 30.4074 43.821 32.9288 42.5342C33.3153 42.3365 33.39 42.2838 33.3373 42.2399C33.3021 42.2135 31.6549 40.0044 29.6782 37.3341L26.0851 32.481L21.5827 25.8184C19.1053 22.1555 17.0671 19.1602 17.0496 19.1602C17.032 19.1558 17.0144 22.116 17.0056 25.7306C16.9925 32.0594 16.9881 32.3141 16.909 32.4634C16.7948 32.6786 16.7069 32.7665 16.5224 32.8631C16.3819 32.9334 16.2589 32.9465 15.5956 32.9465H14.8357L14.6336 32.8192C14.5019 32.7357 14.4052 32.6259 14.3393 32.4986L14.2471 32.3009L14.2559 23.4951L14.269 14.6849L14.4052 14.5136C14.4755 14.4213 14.6248 14.3028 14.7303 14.2457C14.9104 14.1578 14.9806 14.149 15.7406 14.149C16.6367 14.149 16.786 14.1842 17.0188 14.4389C17.0847 14.5092 19.5226 18.1808 22.4393 22.6035C25.3559 27.0262 29.3444 33.0651 31.3035 36.0297L34.8615 41.4186L35.0416 41.3C36.6361 40.2635 38.3229 38.7878 39.6582 37.2506C42.5002 33.9874 44.3319 30.0083 44.9469 25.7657C45.127 24.5316 45.1489 24.1671 45.1489 22.4937C45.1489 20.8204 45.127 20.4559 44.9469 19.2217C43.7257 10.7848 37.7211 3.69621 29.5772 1.06983C28.1408 0.604285 26.6122 0.283673 24.8991 0.090428C24.4774 0.0465085 21.5739 -0.00180282 21.2093 0.0333327ZM30.4074 13.622C30.6183 13.7274 30.7896 13.9294 30.8511 14.1403C30.8862 14.2544 30.895 16.6964 30.8862 22.1995L30.873 30.0962L29.4806 27.9617L28.0837 25.8272V20.0869C28.0837 16.3757 28.1013 14.2896 28.1277 14.1886C28.1979 13.9426 28.3517 13.7494 28.5625 13.6352C28.7426 13.5429 28.8085 13.5342 29.4981 13.5342C30.1483 13.5342 30.2625 13.5429 30.4074 13.622Z" fill="#7B4AE2" fill-opacity="0.5"/>
</svg>
