<svg width="46" height="45" viewBox="0 0 46 45" fill="none" xmlns="http://www.w3.org/2000/svg">
<g clip-path="url(#clip0_21_5618)">
<path fill-rule="evenodd" clip-rule="evenodd" d="M42.234 0H4.31911C2.38024 0 0.808472 1.57177 0.808472 3.51064V41.4255C0.808472 43.3644 2.38024 44.9362 4.31911 44.9362H42.234C44.1729 44.9362 45.7446 43.3644 45.7446 41.4255V3.51064C45.7446 1.57177 44.1729 0 42.234 0ZM27.2292 40.038V35.1898C28.1086 35.9272 29.0638 36.4801 30.0951 36.8487C31.1262 37.2175 32.1672 37.4018 33.2185 37.4018C33.8352 37.4018 34.3735 37.3462 34.8334 37.2351C35.2933 37.1239 35.6775 36.97 35.9858 36.7731C36.294 36.5761 36.5241 36.3437 36.6756 36.0762C36.8273 35.8085 36.9031 35.518 36.9031 35.205C36.9031 34.7808 36.7818 34.402 36.5392 34.0686C36.2966 33.7353 35.9656 33.4272 35.5461 33.1445C35.1265 32.8617 34.6287 32.5891 34.0525 32.3265C33.4764 32.0637 32.8546 31.7962 32.1874 31.5234C30.4892 30.8164 29.2232 29.9528 28.3893 28.9327C27.5551 27.9126 27.1383 26.6803 27.1383 25.236C27.1383 24.1047 27.3657 23.1326 27.8205 22.3196C28.2755 21.5065 28.8946 20.8374 29.678 20.312C30.4614 19.7868 31.3688 19.4005 32.3998 19.1532C33.4309 18.9057 34.5225 18.7819 35.6749 18.7819C36.8071 18.7819 37.8104 18.85 38.6847 18.9864C39.5591 19.1228 40.3653 19.3324 41.1032 19.6152V24.1451C40.7393 23.8927 40.3425 23.6705 39.9129 23.4786C39.4832 23.2866 39.0411 23.1276 38.5863 23.0013C38.1313 22.875 37.679 22.7816 37.2291 22.721C36.7794 22.6605 36.3523 22.6301 35.9479 22.6301C35.3919 22.6301 34.8864 22.6831 34.4316 22.7891C33.9766 22.8953 33.5926 23.0442 33.2792 23.2362C32.9659 23.4281 32.7232 23.6578 32.5513 23.9255C32.3795 24.1932 32.2936 24.4935 32.2936 24.8269C32.2936 25.1906 32.3896 25.5162 32.5817 25.8041C32.7737 26.0919 33.0467 26.3647 33.4005 26.6222C33.7542 26.8799 34.1839 27.1323 34.6893 27.3798C35.1948 27.6273 35.7658 27.8822 36.4027 28.145C37.2721 28.5085 38.053 28.8948 38.7455 29.3038C39.4378 29.713 40.0318 30.175 40.527 30.6902C41.0223 31.2052 41.4015 31.7936 41.6642 32.4551C41.927 33.1167 42.0585 33.887 42.0585 34.7657C42.0585 35.9777 41.8285 36.9953 41.3686 37.8183C40.9086 38.6416 40.2844 39.3083 39.4959 39.8184C38.7076 40.3283 37.7901 40.6944 36.7439 40.9167C35.6977 41.1389 34.5933 41.25 33.4309 41.25C32.238 41.25 31.1033 41.1491 30.0268 40.947C28.9503 40.745 28.0177 40.442 27.2292 40.038ZM25.3829 23.1249H19.1484V40.8989H14.2094V23.1249H8.00528V19.133H25.3829V23.1249Z" fill="#7B4AE2" fill-opacity="0.5"/>
</g>
<defs>
<clipPath id="clip0_21_5618">
<rect width="44.9362" height="44.9362" fill="white" transform="translate(0.808472)"/>
</clipPath>
</defs>
</svg>
