<svg width="45" height="40" viewBox="0 0 45 40" fill="none" xmlns="http://www.w3.org/2000/svg">
<path d="M36.9465 12.9521C36.4804 12.7922 35.9974 12.641 35.5 12.4979C35.5818 12.1656 35.6568 11.8375 35.7235 11.515C36.8185 6.21976 36.1025 1.95386 33.6578 0.549341C31.3136 -0.797405 27.4798 0.606794 23.6078 3.96374C23.2355 4.28654 22.8621 4.62831 22.4889 4.98649C22.2402 4.74951 21.9919 4.52049 21.7443 4.30144C17.6864 0.711977 13.6189 -0.800672 11.1766 0.607909C8.83459 1.95856 8.14103 5.96892 9.1267 10.9873C9.22188 11.472 9.33314 11.967 9.45896 12.4703C8.8833 12.6331 8.32756 12.8066 7.79581 12.9913C3.03834 14.6437 0 17.2334 0 19.9197C0 22.694 3.26166 25.4768 8.21694 27.1641C8.60799 27.2972 9.01376 27.4231 9.43192 27.5427C9.29619 28.087 9.17813 28.6204 9.07903 29.1407C8.13919 34.0719 8.87314 37.9875 11.2089 39.3297C13.6215 40.7157 17.6705 39.291 21.6133 35.8576C21.9249 35.5862 22.2376 35.2984 22.5509 34.9967C22.957 35.3862 23.3625 35.7549 23.7658 36.1008C27.5848 39.3748 31.3567 40.6968 33.6902 39.3509C36.1005 37.9609 36.8838 33.7546 35.8668 28.637C35.7892 28.2461 35.6988 27.8468 35.5973 27.4404C35.8816 27.3567 36.1608 27.2702 36.433 27.1803C41.5844 25.48 44.9362 22.7311 44.9362 19.9197C44.9362 17.2237 41.7998 14.6165 36.9465 12.9521ZM35.8292 25.3651C35.5835 25.4461 35.3314 25.5244 35.0745 25.6004C34.5058 23.8067 33.7382 21.8995 32.799 19.929C33.6953 18.0054 34.4332 16.1225 34.9859 14.3406C35.4456 14.4731 35.8918 14.6128 36.3217 14.7603C40.48 16.1864 43.0165 18.295 43.0165 19.9197C43.0165 21.6502 40.2772 23.8968 35.8292 25.3651ZM33.9836 29.0084C34.4333 31.2713 34.4975 33.3173 34.1997 34.9167C33.932 36.3539 33.3938 37.3121 32.7283 37.6959C31.3122 38.5125 28.2838 37.451 25.0177 34.6511C24.6433 34.3301 24.2662 33.9874 23.8878 33.6247C25.154 32.2451 26.4195 30.6413 27.6545 28.8601C29.8269 28.6681 31.8792 28.3541 33.7404 27.9255C33.8321 28.2939 33.9135 28.6551 33.9836 29.0084ZM15.3198 37.5548C13.9362 38.0416 12.8342 38.0555 12.1681 37.6729C10.7506 36.8584 10.1614 33.7145 10.9652 29.4973C11.0572 29.0144 11.1668 28.5182 11.2931 28.0111C13.1339 28.4166 15.1712 28.7085 17.3488 28.8843C18.5921 30.6273 19.8941 32.2293 21.2062 33.6321C20.9196 33.9078 20.634 34.1703 20.3501 34.4176C18.6066 35.9358 16.8595 37.013 15.3198 37.5548ZM8.83779 25.3545C6.64666 24.6084 4.83714 23.6387 3.5968 22.5806C2.48228 21.6297 1.91958 20.6857 1.91958 19.9197C1.91958 18.2896 4.35906 16.2104 8.4277 14.7972C8.92137 14.6257 9.43816 14.4641 9.97447 14.3123C10.5368 16.1345 11.2744 18.0397 12.1646 19.9662C11.2629 21.9213 10.5148 23.8569 9.94695 25.7004C9.56462 25.591 9.19421 25.4757 8.83779 25.3545ZM11.0106 10.62C10.1661 6.32041 10.727 3.07693 12.1383 2.26303C13.6417 1.39599 16.9659 2.63221 20.4696 5.73154C20.6936 5.92963 20.9184 6.13697 21.1439 6.35148C19.8383 7.74811 18.5482 9.33813 17.3159 11.0708C15.2025 11.2659 13.1795 11.5794 11.3195 11.9992C11.2026 11.5306 11.099 11.0702 11.0106 10.62ZM30.394 15.3883C29.9494 14.6231 29.4929 13.8761 29.0276 13.1494C30.4613 13.33 31.835 13.5697 33.125 13.863C32.7377 15.0996 32.255 16.3924 31.6868 17.7178C31.2792 16.9469 30.848 16.1696 30.394 15.3883ZM22.4895 7.71823C23.375 8.67388 24.2617 9.74086 25.1339 10.8985C24.255 10.8572 23.3652 10.8356 22.4681 10.8356C21.5794 10.8356 20.6962 10.8567 19.8228 10.8973C20.6958 9.75042 21.5902 8.68488 22.4895 7.71823ZM14.5344 15.4015C14.0902 16.1688 13.6671 16.9419 13.2659 17.7164C12.7069 16.3956 12.2286 15.0968 11.838 13.8428C13.1201 13.5569 14.4873 13.3232 15.9119 13.1461C15.44 13.8794 14.9797 14.632 14.5344 15.4013V15.4015ZM15.9529 26.8297C14.481 26.6661 13.0933 26.4444 11.8115 26.1664C12.2084 24.89 12.6972 23.5635 13.268 22.2143C13.6703 22.9882 14.0951 23.7616 14.542 24.5306H14.5421C14.9973 25.314 15.4688 26.0813 15.9529 26.8297ZM22.5426 32.2559C21.6328 31.278 20.7253 30.1962 19.839 29.0325C20.6994 29.0662 21.5766 29.0834 22.4681 29.0834C23.384 29.0834 24.2894 29.0628 25.1806 29.0233C24.3056 30.2079 23.4221 31.2913 22.5426 32.2559ZM31.7051 22.1455C32.3057 23.5093 32.812 24.8289 33.214 26.0836C31.9111 26.3797 30.5044 26.6182 29.0223 26.7954C29.4888 26.0589 29.9492 25.2991 30.4017 24.5175C30.8595 23.7267 31.2941 22.9347 31.7051 22.1455ZM28.7389 23.562C28.0365 24.7754 27.3153 25.9337 26.5832 27.027C25.2498 27.122 23.8722 27.1709 22.4681 27.1709C21.0697 27.1709 19.7095 27.1277 18.3996 27.043C17.638 25.9353 16.9012 24.7736 16.2032 23.5725H16.2034C15.5072 22.3747 14.8666 21.1667 14.286 19.9656C14.8664 18.7616 15.5054 17.5523 16.1975 16.3567L16.1974 16.3569C16.8913 15.158 17.6217 14.002 18.3763 12.9012C19.7127 12.8006 21.083 12.7481 22.468 12.7481H22.4681C23.8593 12.7481 25.2314 12.801 26.5674 12.9025C27.3105 13.9952 28.0359 15.1475 28.7326 16.3465C29.4372 17.559 30.0844 18.7603 30.6697 19.9384C30.0862 21.1368 29.4404 22.3501 28.7389 23.562ZM32.6989 2.20614C34.2037 3.07064 34.7889 6.55715 33.8434 11.129C33.7831 11.4208 33.7152 11.7179 33.6415 12.019C31.7771 11.5905 29.7527 11.2716 27.6332 11.0735C26.3984 9.3218 25.1189 7.7293 23.8346 6.35061C24.1799 6.01968 24.5247 5.70413 24.8681 5.40634C28.1855 2.53014 31.2862 1.39455 32.6989 2.20614ZM22.4681 15.9221C24.6842 15.9221 26.4807 17.7118 26.4807 19.9197C26.4807 22.1274 24.6842 23.9172 22.4681 23.9172C20.252 23.9172 18.4554 22.1274 18.4554 19.9197C18.4554 17.7118 20.252 15.9221 22.4681 15.9221Z" fill="#7B4AE2" fill-opacity="0.5"/>
</svg>
